<?xml version="1.0" encoding="utf-8"?>
<!DOCTYPE svg PUBLIC "-//W3C//DTD SVG 1.0//EN" "http://www.w3.org/TR/2001/REC-SVG-20010904/DTD/svg10.dtd">
<svg version="1.0" xmlns="http://www.w3.org/2000/svg" width="636px" height="636px" viewBox="0 0 636 636" preserveAspectRatio="xMidYMid meet">
 <g fill="#ffffff">
  <path d="M73.7 548.4 c-20 -4.8 -38.1 -21.9 -44.9 -42.4 -2 -6 -2.2 -8.9 -2.6 -37 -0.4 -35.3 0.3 -40.4 6.9 -53.9 5.4 -11 15.3 -21.1 25.9 -26.5 4.1 -2.2 7.7 -4 7.8 -4.2 1.3 -1 -2.3 -5.9 -11 -15.2 -16.4 -17.4 -27.7 -35.7 -34.3 -55.5 -8.5 -25.7 -6.2 -43.4 7.2 -55.7 6.5 -6 19.8 -12.7 33 -16.7 l9.3 -2.7 3.1 -7.8 c7.2 -17.9 25.1 -47 39.9 -64.8 29.2 -35.2 69.5 -61.8 111.9 -73.9 27.5 -7.9 41.3 -10.1 68.1 -10.8 16.1 -0.4 23.4 -0.2 34 1.2 41.7 5.2 83.9 23.1 123 51.9 16.2 11.9 37.2 30.8 50.4 45.4 17.3 19 36.6 45.2 48 64.8 l4.7 8.2 10.9 3.5 c24.6 8 39.5 18 46.3 31.1 3.2 6 3.2 6.3 3.2 20.1 -0.1 13.1 -0.3 14.6 -3.4 24 -5.1 15.4 -14 31.5 -23.2 41.9 -1.7 2 -4.1 6.8 -5.5 11.1 l-2.5 7.6 6.4 6.2 c7 6.8 12.8 15.8 15.8 24.3 3.4 9.5 4.1 19.9 3.7 48.7 -0.4 22.3 -0.8 28.2 -2.3 32.7 -7.2 22.6 -23.8 38.7 -46 44.5 -5.3 1.3 -32 1.5 -242 1.4 -199.8 -0.1 -236.9 -0.3 -241.8 -1.5z m387.7 -33.4 c3 -1.2 6.6 -3 7.9 -4 3.4 -2.7 8.8 -2.6 11.3 0.1 2.5 2.8 7.4 5.3 8.4 4.2 0.4 -0.4 1.2 -2.2 1.8 -4 0.8 -2.4 0.8 -3.3 -0.1 -3.6 -0.8 -0.2 -1.4 -6.2 -1.8 -19.8 -0.6 -20.6 -1.5 -24.7 -6.2 -29.7 -5.8 -6.3 -17.6 -8.6 -31.1 -6.2 -11.3 2 -11.7 2.2 -10.3 6.5 0.9 3 1.4 3.5 3.1 3 1.2 -0.3 6 -0.8 10.7 -1.2 14.5 -1 19.9 2.3 19.9 12.2 l0 5.3 -8.7 0.6 c-19.2 1.5 -26.8 4.8 -31.5 14 -4 7.8 0.2 17.4 9.5 22.1 6.2 3 9.9 3.1 17.1 0.5z m-275 -2.2 c0.3 -1.3 0.7 -3.8 0.9 -5.5 l0.4 -3.3 -18.9 0 -18.8 0 0 -36 0 -36 -7.5 0 -7.5 0 0 41.5 0 41.5 25.5 0 25.5 0 0.4 -2.2z m74.6 -1.8 l0 -4 -8.5 0 -8.5 0 0 -27 0 -27 -16.5 0 -16.5 0 0 4 0 4 9 0 9 0 0 23 0 23 -9.5 0 -9.5 0 0 4 0 4 25.5 0 25.5 0 0 -4z m39 -20.6 c0.4 -17.6 0.8 -24.5 1.8 -25.7 2.3 -2.7 7.8 -4.7 13 -4.7 8.2 0 8.2 0 8.2 29.7 l0 25.3 7.5 0 7.5 0 0 -24.8 c0 -24.4 0 -24.9 -2.5 -29.8 -5.5 -11 -17.2 -12.3 -28.1 -3.1 -3.9 3.3 -9.4 3.7 -9.4 0.8 0 -4.4 -1 -5.1 -7.1 -5.1 l-5.9 0 0 31 0 31.1 7.3 -0.3 7.2 -0.3 0.5 -24.1z m76 -20.7 l0 -45.4 -3.2 0.4 c-1.8 0.2 -5.2 0.6 -7.5 0.9 l-4.3 0.5 0 44.5 0 44.4 7.5 0 7.5 0 0 -45.3z m40.8 43.1 c-20.1 -30.6 -21.2 -33.4 -16 -39.8 2.7 -3.3 11.9 -16 13.6 -18.7 0.5 -1 -0.7 -1.3 -4.8 -1.3 -5.4 0 -5.6 0.1 -8.6 4.3 -1.7 2.3 -6.3 8.5 -10.1 13.7 -3.8 5.2 -6.7 10 -6.4 10.8 0.3 0.8 4.8 8.5 10.1 17.3 l9.6 15.9 7 0 7 0 -1.4 -2.2z m-178.7 -79.8 c1 -0.6 2.6 -2.4 3.4 -4 1.4 -2.7 1.4 -3.3 0.1 -5.9 -2.8 -5.4 -9.7 -6.2 -13.7 -1.5 -3.2 3.7 -3.1 5.4 0.5 9 3.5 3.5 6.3 4.2 9.7 2.4z m227.4 -23 c0.3 -0.5 3.5 -1 7 -1 8.5 0 31.3 -5.9 40.2 -10.4 7.3 -3.6 17.3 -11.9 17.3 -14.2 0 -0.8 0.4 -1.4 1 -1.4 0.5 0 2.3 -2.6 3.9 -5.7 2.6 -5.3 3.4 -6 8 -7.6 12.7 -4.5 31.1 -28.3 35.1 -45.6 4 -17 -1.5 -26.6 -20.5 -35.6 -6.8 -3.2 -25 -8.5 -29.3 -8.5 -1.7 0 -3.4 -2.6 -9.1 -13.8 -16.2 -31.8 -41.2 -64.4 -68.1 -88.7 -36 -32.5 -73.4 -52.4 -114.8 -61.2 -11.4 -2.4 -14.8 -2.7 -33.2 -2.7 -22.8 -0.1 -32.5 1.1 -55.3 6.9 -12.3 3.1 -27.8 9 -40.7 15.5 -8.2 4.1 -25.5 15.8 -34 22.9 -7 5.8 -24 21.9 -24 22.7 0 0.2 -3.6 4.9 -8 10.6 -14.6 18.7 -28.9 45.4 -36 67.3 -1.2 3.9 -2.7 7.5 -3.2 8.1 -0.4 0.7 -5.2 1.7 -10.6 2.4 -19.3 2.4 -33.2 7.3 -39.7 14 -6.6 6.7 -5.9 15.5 2.4 31.5 3.8 7.4 18.3 23.5 21.1 23.5 0.8 0 3.8 -2.2 6.5 -5 4.3 -4.3 5.5 -4.9 9.1 -5 l4.2 0 0.7 4.8 c3.3 23.5 15.3 41.7 33.1 50.3 4.5 2.2 11.2 4.6 15 5.4 7.9 1.7 26 2 26.9 0.5 0.3 -0.5 3.2 -1 6.3 -1 3.2 0 12.9 -1.8 22.2 -4 21 -5.1 28.1 -5.2 44.1 -1 17.6 4.7 29.9 6.9 34.6 6.3 2.3 -0.3 5 -0.2 6 0.2 1 0.4 4.3 0.7 7.3 0.6 8.2 -0.2 39.2 -4.2 41.6 -5.3 1.5 -0.7 6.4 -0.5 16.1 0.6 13.6 1.5 21.5 3.6 31.8 8.2 12.8 5.7 35.7 12.6 45.5 13.6 5.5 0.6 10 1.5 10 2 0 1.2 28.7 1 29.5 -0.2z"/>
  <path d="M451 506.2 c-1.6 -1.3 -2.4 -3.2 -2.8 -7 -1 -10.7 3.3 -14.3 17.7 -14.6 l8.6 -0.1 0.3 7 c0.4 9.3 -0.2 11 -4.5 14 -4.8 3.2 -15.7 3.6 -19.3 0.7z"/>
  <path d="M165.2 302 c-14.2 -3 -26.8 -14.7 -31.3 -28.9 -2.4 -8 -2.6 -23.4 -0.3 -31.2 3.9 -13 13.3 -23.4 25.5 -28 10.6 -4 29 -3.4 38.3 1.3 7.2 3.6 10.6 6.7 10.6 9.6 0 3.3 -4 11.2 -5.7 11.2 -0.7 0 -1.3 1.1 -1.3 2.5 0 1.3 -0.7 5 -1.5 8.2 -1.9 7.4 -1.9 14.6 0.1 21.3 0.9 2.9 1.4 6.6 1.2 8.2 -0.3 2.1 0 2.8 1.1 2.8 2.3 0 5.1 5.5 5.1 10.1 0 3.4 -0.5 4.2 -3.9 6.4 -6.9 4.7 -13.9 6.7 -24.1 7.1 -5.2 0.2 -11.4 -0.1 -13.8 -0.6z m22.6 -17.4 c4.8 -2.4 8.4 -5.6 6.4 -5.6 -2.7 0 -4.2 -3.3 -4.2 -9.1 0 -6.9 -2.8 -14.6 -8.4 -22.8 -2.5 -3.7 -3.6 -6.4 -3.6 -9 0 -5.1 1.2 -6.4 6.7 -7.1 l4.8 -0.6 -5.9 -1.8 c-6.8 -2.1 -10.4 -1.7 -18 1.7 -9.8 4.5 -17.2 14.7 -18.3 25.1 -1.6 15.8 16 33.8 31.4 32.1 2.4 -0.3 6.5 -1.6 9.1 -2.9z"/>
  <path d="M344.9 300.2 c-6.6 -2.2 -13.2 -6.5 -18 -11.9 -8.7 -9.7 -11.3 -17.6 -10.8 -34.2 0.4 -11.2 0.6 -12 4.2 -19.3 4.5 -9.1 11.2 -15.7 20.7 -20.2 6.3 -3 7 -3.1 20 -3.1 13.3 0 13.7 0.1 20.3 3.3 7.9 3.9 15.7 11.3 19.2 18.2 9 17.7 6.7 41 -5.3 55.1 -1.8 2.1 -3.9 3.9 -4.7 3.9 -0.7 0 -1.6 0.7 -1.9 1.5 -0.3 0.9 -3.6 3 -7.3 4.8 -6.3 3 -7.7 3.2 -18.8 3.4 -9.5 0.2 -13.2 -0.1 -17.6 -1.5z m24.4 -14.6 c2 -0.8 5.4 -2.7 7.5 -4.2 3.4 -2.7 3.5 -2.9 1.4 -3.2 -3 -0.5 -4.4 -3.4 -4.1 -9 0.1 -2.6 -0.2 -5.6 -0.6 -6.7 -2.5 -6.5 -4.7 -10.8 -7.9 -15.5 -5.8 -8.5 -4.3 -16.9 3.2 -17.1 l2.7 -0.1 -3 -1.3 c-6.9 -3.2 -18.6 -0.5 -26.1 5.9 -5 4.3 -10.3 14 -11 20.3 -1 8.7 5.1 20.9 13.4 26.6 7.9 5.5 16.7 7.1 24.5 4.3z"/>
 </g>
 <g fill="#ffc7c7">
  <path d="M433 413.1 c0 -0.6 -1.5 -0.7 -3.4 -0.4 -1.9 0.3 -3.6 0.1 -4 -0.5 -0.4 -0.6 -1.3 -0.9 -2 -0.6 -2.6 1 -31 -7.6 -45.4 -13.7 -2.3 -1 -4.3 -1.8 -4.5 -1.8 -0.1 0 -3.3 -1.2 -7 -2.6 -7.2 -2.7 -29.1 -5.8 -31.7 -4.4 -1.8 0.9 -31.8 4.5 -44.2 5.4 -4.8 0.3 -8.9 0.2 -9.2 -0.3 -0.3 -0.5 -2.7 -0.7 -5.3 -0.5 -5.3 0.5 -18.5 -2 -36.2 -6.7 -6.2 -1.6 -13.6 -3 -16.4 -3 -2.8 0 -12.8 1.8 -22.1 4.1 -9.4 2.3 -19.5 4.2 -22.4 4.4 -2.9 0.1 -5.5 0.5 -5.9 0.8 -1.2 1.3 -25.8 0.7 -32.7 -0.8 -26.1 -5.5 -43.9 -26.1 -48.1 -55.7 -0.8 -5.3 -1.6 -5.8 -4.8 -2.7 l-2.2 2 -0.3 -2.8 c-0.2 -1.5 0.1 -2.9 0.7 -3.1 0.7 -0.2 1.1 -4.5 1.1 -12 0 -15.6 2.9 -39.7 5.7 -46.9 0.3 -0.7 -0.2 -1.3 -1.1 -1.3 -0.9 0 -1.6 -0.6 -1.6 -1.4 0 -1.6 2.1 -2.6 5.5 -2.6 3 0 3.8 -1.2 6.5 -9.5 7.1 -21.9 21.4 -48.6 36 -67.3 4.4 -5.7 8 -10.4 8 -10.6 0 -0.2 3.7 -4 8.3 -8.4 33.9 -33 67.4 -50 114.4 -57.9 8.4 -1.4 16.1 -1.8 34.3 -1.8 21.7 0.1 24.5 0.3 36.2 2.8 41.5 8.8 78.8 28.7 114.8 61.2 26.9 24.3 51.9 56.9 68.1 88.7 3.8 7.6 7.3 13.7 7.7 13.7 2.4 -0.4 4.2 0.3 4.2 1.6 0 1 -1.1 1.5 -3.5 1.5 -1.9 0 -3.5 -0.4 -3.5 -0.8 0 -0.8 -19.6 -3.2 -26.4 -3.2 -3 0 -4.4 0.8 -7.6 4.2 -2.2 2.3 -4 4.3 -4 4.5 0 0.3 -1.3 2.4 -3 4.8 -1.6 2.3 -3.9 6.6 -5 9.4 l-2 5.2 30.1 31.7 c16.6 17.4 31.2 32.4 32.5 33.2 2.7 1.6 3.2 5 0.9 5 -0.8 0 -2.8 2.7 -4.5 6 -1.7 3.3 -3.5 6 -4 6 -0.6 0 -1 0.6 -1 1.4 0 2.3 -10 10.6 -17.3 14.2 -8.2 4.2 -31.7 10.4 -40.5 10.8 -3.4 0.2 -6.6 0.6 -6.9 1 -1 1 -35.3 0.7 -35.3 -0.3z m-12.5 -42 c-4.6 -4.1 -35.2 -22.6 -53.5 -32.4 -27 -14.3 -56 -23.4 -79.5 -24.9 -3.6 -0.3 -4 -0.6 -4.3 -3.1 -0.3 -2 -0.8 -2.7 -1.8 -2.3 -4.6 1.8 -12.8 3.5 -18.9 4.1 -6.4 0.6 -22.3 -0.7 -26 -2.1 -1.1 -0.5 -1.5 0.1 -1.5 2 0 2.1 -0.6 2.7 -4.2 3.6 -18.7 4.6 -29.7 8.7 -44.3 16.3 -12 6.3 -25.1 14 -28.5 16.9 l-2.5 2 2.9 -1.7 c19.3 -11.5 35.9 -19 54.1 -24.3 8.8 -2.5 9.9 -2.6 44 -3 47.1 -0.5 61.8 1.3 86.2 10.4 12.2 4.6 41.2 18.8 61.8 30.3 16.1 9 17.7 9.8 16 8.2z m-229.4 -74.1 c7.9 -3 13.2 -6.8 12.6 -9.1 -0.3 -1 -0.2 -1.9 0.3 -1.9 0.4 0 -0.5 -3.7 -2.1 -8.2 -2.5 -7.4 -2.9 -9.7 -2.9 -20.3 0 -11.9 0.8 -16.3 4.5 -25 1.2 -2.8 1.4 -4 0.6 -4.3 -0.9 -0.3 -0.9 -0.8 -0.1 -1.7 2.2 -2.7 -9.9 -9.7 -20 -11.5 -25.8 -4.7 -49 15.3 -49 42.1 0 19.9 14.3 37.9 33.2 41.9 6 1.3 16.9 0.3 22.9 -2z m187.2 -1.7 c3.7 -1.8 7 -3.9 7.3 -4.8 0.3 -0.8 1.2 -1.5 1.9 -1.5 1.8 0 7.6 -6.9 10.2 -12.2 2.8 -5.6 5.3 -15.1 5.3 -20.3 0 -15.6 -10.1 -31.5 -24.7 -38.7 -6.4 -3.1 -7.4 -3.3 -17.3 -3.3 -9.7 0 -11 0.2 -17 3.1 -9.5 4.5 -16.2 11.1 -20.7 20.1 -3.2 6.5 -3.7 8.6 -4.1 16.2 -0.6 13.3 2.4 22.2 10.7 31.4 8.8 9.7 18.8 13.9 32.6 13.4 7.7 -0.2 10 -0.7 15.8 -3.4z"/>
 </g>
 <g fill="#000000">
  <path d="M441.3 517.5 c-7.3 -3.7 -10.6 -8.9 -11.1 -17.5 -0.3 -5.2 0 -7.5 1.6 -10.6 4.7 -9.2 12.3 -12.5 31.5 -14 8.4 -0.6 8.7 -0.7 8.7 -3.1 0 -3.4 -4.9 -8 -9.4 -8.9 -2.1 -0.3 -7 -0.1 -10.9 0.6 -12.1 2.2 -11.6 2.3 -14.3 -4.8 l-2.4 -6.3 3.3 -1.3 c10.3 -4.3 33.8 -4.8 41.2 -0.9 10.1 5.3 11.7 9.7 12.3 33.6 0.4 16.9 0.6 19 2.3 20.6 1.9 1.7 1.9 1.9 -0.1 8.5 l-2.1 6.7 -3.7 -0.7 c-4.7 -0.8 -7 -2 -10.4 -5.1 l-2.7 -2.5 -2.6 2 c-8.1 6.4 -22.4 8.1 -31.2 3.7z m26 -15 c4 -2.8 5 -5.2 4.5 -11.1 l-0.3 -3.9 -5.9 0.3 c-7.3 0.3 -12.1 2.5 -13.6 6.1 -3.6 8.9 6.5 14.5 15.3 8.6z"/>
  <path d="M132 474.5 c0 -23.9 0 -43.8 0 -44.2 0 -0.5 4.7 -0.9 10.5 -1.1 l10.5 -0.3 0 36.1 0 36 19.1 0 19.1 0 -0.6 6.8 c-1.2 11.4 2.2 10.2 -30.2 10.2 l-28.4 0 0 -43.5z"/>
  <path d="M207 511 l0 -7 9.5 0 9.5 0 0 -20 0 -20 -8.8 0 c-4.9 0 -9.1 -0.2 -9.3 -0.4 -0.2 -0.2 -0.2 -3.4 -0.1 -7 l0.4 -6.6 19.4 0 19.4 0 0 27 0 27 8.5 0 8.5 0 0 7 0 7 -28.5 0 -28.5 0 0 -7z"/>
  <path d="M282 484 l0 -34 8.9 0 c9.4 0 10.1 0.4 10.1 5.2 0 1.8 0.2 1.8 3.3 -0.8 5.2 -4.4 10.6 -6.4 17.6 -6.4 8.6 0 13.2 2.6 16.6 9.4 2.5 5 2.5 5.2 2.5 32.8 l0 27.8 -10.5 0 -10.5 0 0 -25.4 c0 -23.1 -0.2 -25.6 -1.8 -27.6 -1.5 -1.9 -2.5 -2.2 -5.3 -1.6 -1.9 0.3 -4.7 1.7 -6.4 3 l-3 2.4 -0.5 24.4 -0.5 24.3 -10.2 0.3 -10.3 0.3 0 -34.1z"/>
  <path d="M358 470.6 l0 -47.4 3.8 -0.6 c2 -0.3 6.7 -0.8 10.5 -1.2 l6.7 -0.6 0 29.7 0 29.7 7.9 -10.9 c4.4 -5.9 9.4 -12.7 11.1 -15 l3.1 -4.3 11 0 c10.4 0 10.9 0.1 9.7 1.8 -2.1 2.9 -9.7 13.1 -15.6 20.9 l-5.4 7.3 8.5 13.2 c4.6 7.3 10 15.9 12.1 19.1 l3.7 5.7 -12 0 -11.9 0 -10.8 -18 -10.9 -18 -0.3 18 -0.2 18 -10.5 0 -10.5 0 0 -47.4z"/>
  <path d="M229.4 436.6 c-1.7 -0.8 -4.1 -2.7 -5.3 -4.2 -3 -3.8 -2.5 -10.5 1.2 -14.1 3 -3.1 10.2 -4.2 14.7 -2.3 8.8 3.6 7.6 18.4 -1.7 20.9 -4.7 1.3 -5.1 1.3 -8.9 -0.3z"/>
  <path d="M167.3 289.6 c-9.6 -3.1 -17.8 -11 -21.4 -20.5 -1.7 -4.5 -2 -7.1 -1.7 -13.6 0.7 -13.2 7.2 -23.1 18.7 -28.3 10.6 -4.9 22.2 -4 31.9 2.4 5.1 3.4 5.4 3.4 6.8 1.7 1.2 -1.6 1.3 -1.4 1.4 2 0 2.1 -0.5 4.7 -1 5.8 -1.3 2.2 -5.2 2.7 -4.4 0.5 0.7 -1.9 -6.3 -5.6 -10.5 -5.6 -2.8 0 -6.1 2.2 -6.1 4 0 0.4 1.6 3.2 3.6 6.1 2 3 4.8 8.1 6.1 11.4 3.1 7.7 4.3 8.9 4.3 4.5 0 -3.2 0.1 -3.3 1.5 -1.4 1.6 2.2 2 11 0.5 11.9 -0.5 0.3 -1 -0.3 -1 -1.5 0 -3 -2.4 -2 -2.8 1.2 -0.2 1.4 0.4 3.3 1.3 4.2 1.9 1.8 3.7 1.3 2.8 -0.9 -0.3 -1 0.1 -1.5 1.5 -1.5 2.4 0 4.2 4.4 4.2 9.9 -0.1 3.2 -0.2 3.4 -1.4 1.9 -1.6 -2.2 -3 -2.3 -4.7 -0.2 -0.7 0.8 -3.6 2.7 -6.3 4.1 -6.2 3.2 -16.9 4 -23.3 1.9z"/>
  <path d="M354 289.6 c-10.4 -2.3 -17.5 -7.8 -22.2 -17.4 -3 -6 -3.3 -7.5 -3.3 -15.7 0 -8.4 0.2 -9.5 3.4 -15.3 6 -11.1 16.2 -17.3 28.6 -17.5 9.3 -0.1 15.9 2.7 23.2 9.8 5.2 5.2 6.4 7.1 8.2 12.9 1.2 3.8 2.1 8.5 2.1 10.5 0 4.9 -2.6 13.5 -5.4 18 -2.7 4.2 -9.2 10.3 -13.3 12.5 -2.4 1.2 -13.5 3.8 -15.2 3.5 -0.3 0 -3.1 -0.6 -6.1 -1.3z m29.8 -15.8 c1.8 -1.8 1.5 -7.5 -0.4 -8.2 -2.6 -1 -5.3 0.3 -6 2.9 -1.2 4.7 3.3 8.4 6.4 5.3z m1.3 -13.4 c2 -2.1 2.4 -3.5 2.3 -8.3 -0.1 -6.1 -1.8 -10.3 -5.6 -13.8 -2.5 -2.4 -8.8 -5.3 -11.3 -5.3 -1.6 0 -5.5 3.4 -5.5 4.8 0 0.4 2 3.8 4.4 7.6 2.5 3.7 5 8.4 5.7 10.4 2.3 7.4 5.8 9 10 4.6z"/>
 </g>
 <g fill="#ff8f95">
  <path d="M538.9 372.2 c-1.4 -0.9 -16.4 -16.2 -33.2 -34 -26.2 -27.5 -30.7 -32.7 -30.7 -35.2 0 -1.7 0.5 -3 1.1 -3 0.5 0 0.7 -0.5 0.4 -1 -0.3 -0.6 0.1 -1.7 1 -2.6 0.9 -0.9 1.4 -2.3 1.1 -3 -0.3 -0.8 -0.1 -1.4 0.5 -1.4 0.6 0 0.8 -0.4 0.5 -0.9 -0.3 -0.5 0.1 -1.2 1 -1.5 0.8 -0.3 1.3 -1 1 -1.5 -0.3 -0.5 0.1 -1.2 1 -1.5 0.8 -0.3 1.3 -1 1 -1.5 -0.3 -0.5 0.1 -1.2 0.9 -1.5 0.8 -0.3 1.4 -0.9 1.3 -1.3 -0.1 -0.4 1.7 -2.8 4.1 -5.2 l4.3 -4.4 7.1 0.2 c9 0.2 24.5 1.9 27.2 3 1.1 0.4 7.2 2 13.5 3.5 18.8 4.5 32.3 12.1 37.7 21.3 2.3 4 2.7 5.7 2.7 12.7 0 13.3 -3.9 24.6 -13.3 38.4 -5.1 7.5 -15.9 17.8 -21.3 20.2 -5.3 2.4 -5.7 2.4 -8.9 0.2z"/>
  <path d="M70.5 341.2 c-5.1 -3.2 -16.1 -15.8 -19.7 -22.9 -5.6 -10.7 -7.1 -16.3 -6.6 -25.3 0.3 -7.4 0.5 -8.1 3.8 -11.5 5.8 -6.1 15.9 -10.3 30.4 -12.9 13.4 -2.4 18.6 -2.8 18.6 -1.3 0 0.6 -1.2 6.4 -2.6 12.7 -1.4 6.3 -2.4 12.4 -2.1 13.7 0.2 1.3 0 2.3 -0.5 2.3 -0.5 0 -0.8 2 -0.7 4.5 0.2 2.4 0 4.7 -0.4 5.1 -0.4 0.4 -0.7 6.4 -0.7 13.3 l0 12.7 -5.8 5.7 c-6.3 6.3 -8.7 6.9 -13.7 3.9z"/>
  <path d="M366 336.5 c0 -3 2.3 -3.1 5.2 -0.2 2.5 2.4 2.3 2.7 -1.7 2.7 -3.1 0 -3.5 -0.3 -3.5 -2.5z"/>
  <path d="M280 310 l0 -4 4.7 0 c4.6 0 4.6 0 2.8 2 -1.8 2 -1.8 2.1 0.3 2.7 1.2 0.3 2.2 1.2 2.2 1.9 0 1 -1.4 1.4 -5 1.4 l-5 0 0 -4z"/>
 </g>
 <g fill="#ae6062">
  <path d="M424.7 379 c-10.3 -6.5 -47.7 -26.5 -63.5 -33.9 -37.9 -17.9 -52 -20.5 -104.7 -19.9 -30.8 0.4 -32.3 0.6 -41 3 -21.7 6.3 -40.8 15.5 -63.1 30.4 -13.5 9 -18.9 9.9 -16.3 2.8 1.6 -4.7 25.9 -21 48.1 -32.4 14.5 -7.5 25.1 -11.4 43.7 -16 l4.3 -1.1 -7.3 -4.4 c-8 -4.6 -16.9 -13.2 -21.9 -21.1 -9.6 -15.3 -10.6 -37.2 -2.4 -53.7 4 -7.9 10.1 -15.7 12.5 -15.7 3.6 0 3.3 2.9 -0.9 8.9 -10.4 14.7 -13.1 31.7 -7.7 47.8 3.1 9.2 6.6 14.4 14.5 21.5 11.3 10.3 21.1 13.9 37.5 13.9 16.5 0 27.2 -4 38.4 -14.7 5.3 -5 8 -8.6 11.6 -15.5 4.8 -9.3 6.7 -11.2 9 -8.8 3.1 3.2 -5.5 18.9 -15.7 28.5 -5.9 5.6 -12.9 10.4 -15.3 10.4 -0.8 0 -1.5 0.5 -1.5 1 0 0.6 2.8 1 6.3 1 14.5 0 39.6 6.2 59.2 14.5 19.6 8.4 45.6 23 70.8 39.7 14.2 9.5 14.7 9.9 14.7 13.3 0 3 -0.3 3.5 -2.2 3.5 -1.3 0 -4.4 -1.4 -7.1 -3z"/>
 </g>
</svg>